<svg xmlns="http://www.w3.org/2000/svg"  viewBox="0 0 48 48" width="480px" height="480px" baseProfile="basic"><path d="M41,8H7C6.447,8,6,8.448,6,9v32c0,1.654,1.346,3,3,3h30c1.654,0,3-1.346,3-3V9C42,8.448,41.553,8,41,8z"/><path fill="#fff" d="M39,41H9c-1.105,0-2-0.895-2-2V7h34v32C41,40.105,40.105,41,39,41z"/><path d="M39,42H9c-1.654,0-3-1.346-3-3V7c0-0.552,0.447-1,1-1h34c0.553,0,1,0.448,1,1v32C42,40.654,40.654,42,39,42z M8,8v31	c0,0.551,0.448,1,1,1h30c0.552,0,1-0.449,1-1V8H8z"/><path d="M21.5,31c-5.238,0-9.5-4.262-9.5-9.5s4.262-9.5,9.5-9.5s9.5,4.262,9.5,9.5S26.738,31,21.5,31z M21.5,14	c-4.136,0-7.5,3.364-7.5,7.5s3.364,7.5,7.5,7.5s7.5-3.364,7.5-7.5S25.636,14,21.5,14z"/><path d="M35,37c-0.256,0-0.512-0.098-0.707-0.293l-8-8c-0.391-0.391-0.391-1.023,0-1.414s1.023-0.391,1.414,0l8,8	c0.391,0.391,0.391,1.023,0,1.414C35.512,36.902,35.256,37,35,37z"/></svg>



